<?xml version="1.0" standalone="no"?>
<!DOCTYPE svg PUBLIC "-//W3C//DTD SVG 20010904//EN"
 "http://www.w3.org/TR/2001/REC-SVG-20010904/DTD/svg10.dtd">
<svg version="1.0" xmlns="http://www.w3.org/2000/svg"
 width="350.000000pt" height="450.000000pt" viewBox="0 0 350.000000 450.000000"
 preserveAspectRatio="xMidYMid meet">

<g transform="translate(0.000000,450.000000) scale(0.100000,-0.100000)"
fill="#000000" stroke="none">
<path d="M0 4055 l0 -445 34 0 c21 0 42 9 60 25 28 26 81 40 121 32 33 -6 38
4 46 88 4 54 12 80 32 110 21 31 27 52 27 92 0 28 5 55 10 58 6 3 10 22 10 41
0 20 11 50 26 74 16 24 23 46 20 58 -4 11 -8 41 -10 68 -2 27 -5 54 -7 59 -4
12 27 114 41 135 6 11 24 14 61 13 52 -2 89 9 89 27 0 6 -107 10 -280 10
l-280 0 0 -445z m228 322 c6 -28 -25 -67 -53 -67 -21 0 -25 5 -25 29 0 48 70
82 78 38z m21 -152 c3 -20 -34 -54 -61 -55 -36 0 -25 54 15 70 29 11 41 7 46
-15z m-69 -443 c0 -35 -30 -56 -55 -38 -24 17 -1 66 32 66 18 0 23 -5 23 -28z"/>
<path d="M1970 4491 c13 -8 169 -31 207 -31 7 0 19 -15 28 -32 8 -18 29 -41
45 -50 17 -10 33 -25 37 -35 3 -10 24 -37 47 -61 l40 -42 -33 -28 c-27 -22
-32 -33 -27 -50 4 -12 14 -22 22 -22 8 0 14 -7 14 -15 0 -8 7 -15 15 -15 9 0
35 -20 58 -44 42 -43 90 -65 102 -46 4 6 11 8 16 4 6 -3 17 3 25 14 8 12 31
23 54 27 32 5 46 2 72 -16 48 -33 58 -48 58 -94 0 -64 -17 -73 -132 -74 -79
-1 -104 -4 -135 -22 -21 -12 -39 -22 -41 -24 -11 -10 36 -86 71 -112 23 -18
64 -53 90 -77 26 -25 63 -50 82 -56 18 -6 54 -29 80 -52 l46 -41 23 22 c43 40
67 25 87 -54 15 -59 29 -80 29 -43 0 19 8 29 33 39 17 8 37 13 44 11 12 -3 15
4 33 88 23 104 61 132 80 58 5 -24 17 -65 25 -93 34 -117 31 -184 -9 -232 -16
-19 -26 -51 -34 -102 -6 -41 -15 -78 -21 -84 -13 -13 -58 16 -73 49 -12 26
-54 43 -68 28 -7 -8 -17 -45 -40 -149 -5 -22 -6 -96 -4 -165 3 -71 1 -136 -4
-150 -9 -23 -13 -19 -52 65 -122 261 -222 424 -351 568 -102 115 -292 235
-452 286 -122 39 -195 47 -458 50 -201 2 -289 -7 -289 -29 0 -6 -7 -10 -15
-10 -9 0 -20 -12 -25 -26 -6 -14 -14 -23 -18 -20 -4 2 -23 -9 -41 -24 -18 -16
-48 -32 -67 -36 -21 -4 -34 -12 -34 -21 0 -10 -7 -14 -20 -10 -11 3 -20 2 -20
-3 0 -4 -6 -8 -12 -7 -34 1 -59 -4 -54 -11 2 -4 -15 -7 -40 -6 -26 1 -48 -4
-55 -12 -6 -8 -15 -11 -20 -8 -8 5 -13 -20 -6 -30 4 -7 -36 -46 -49 -46 -7 0
-22 -13 -34 -30 -12 -16 -24 -29 -28 -28 -12 3 -201 -193 -208 -216 -12 -42
-48 -116 -56 -116 -4 0 -8 -11 -8 -24 0 -14 -4 -27 -10 -31 -5 -3 -12 -32 -16
-65 -4 -33 -11 -60 -15 -60 -5 0 -9 -8 -9 -17 0 -14 -2 -15 -9 -4 -7 11 -9 11
-14 0 -5 -11 -9 -10 -20 4 -8 9 -22 17 -32 17 -21 0 -65 45 -65 67 0 12 -3 13
-14 4 -11 -10 -11 -17 5 -48 17 -33 17 -39 5 -52 -21 -20 -46 2 -47 43 -1 28
-2 27 -11 -11 -7 -33 -14 -43 -29 -43 -22 0 -24 12 -8 42 11 20 10 21 -41 14
-46 -6 -54 -4 -67 13 -11 16 -25 21 -59 21 l-44 0 0 -94 0 -93 60 -13 c63 -13
170 -7 220 13 19 8 96 27 133 32 20 4 27 1 27 -13 0 -14 2 -15 10 -2 20 32 25
-9 22 -182 -2 -160 -1 -179 13 -168 11 9 13 23 9 49 -7 45 -7 49 1 141 7 80
23 155 31 147 3 -3 -1 -88 -7 -190 -10 -144 -16 -184 -26 -180 -19 7 -16 -11
13 -95 29 -86 26 -120 -21 -251 -15 -42 -25 -87 -23 -103 4 -21 1 -27 -9 -24
-10 4 -13 -11 -14 -67 -1 -61 -3 -67 -10 -37 -6 26 -7 19 -3 -26 5 -63 -2 -98
-17 -88 -5 3 -8 -23 -7 -58 l1 -63 7 55 c6 46 7 49 10 20 7 -90 6 -118 -6
-113 -7 2 -14 -10 -18 -32 -4 -19 -11 -33 -15 -30 -5 2 -12 -10 -15 -29 -4
-19 -18 -62 -33 -97 -37 -91 -52 -158 -63 -282 -11 -128 -25 -154 -104 -191
-57 -27 -72 -40 -77 -70 -2 -10 -20 -27 -39 -37 -45 -24 -48 -36 -49 -144 l-1
-90 21 32 c12 18 25 33 30 33 12 0 59 53 59 67 0 33 35 95 61 109 16 8 29 20
29 27 0 15 45 59 78 76 24 12 27 6 23 -46 -1 -11 3 -24 8 -28 16 -9 13 -31 -6
-51 -17 -17 -16 -17 21 -11 22 3 43 12 47 18 4 6 12 8 19 4 8 -5 -2 -20 -30
-47 -39 -38 -40 -40 -16 -36 36 7 32 -5 -9 -28 -36 -19 -50 -39 -39 -56 3 -5
14 -2 25 8 13 12 41 18 96 21 126 5 151 9 177 27 28 18 56 21 56 6 0 -5 6 -10
14 -10 8 0 16 -5 18 -12 3 -8 11 -7 28 5 17 12 35 15 60 11 38 -6 110 17 110
35 0 5 10 13 23 17 12 4 41 21 65 37 36 26 45 29 53 17 8 -12 16 -8 43 22 35
40 56 47 75 25 13 -16 5 -27 -21 -27 -26 0 -22 -15 8 -39 58 -46 123 -15 174
81 11 21 27 38 35 38 19 0 19 -21 0 -46 -20 -26 -19 -29 11 -30 32 -2 64 -31
64 -57 0 -17 5 -19 39 -14 29 3 41 1 45 -9 7 -19 42 -18 50 2 5 13 11 11 40
-11 19 -14 40 -40 47 -58 7 -18 17 -35 23 -39 5 -4 12 -37 14 -75 2 -44 10
-82 24 -106 l20 -39 -27 -73 c-40 -111 -98 -147 -197 -122 -13 4 -34 20 -46
37 -18 24 -20 34 -12 50 7 14 8 26 0 39 -15 28 -12 76 6 119 8 20 17 53 20 72
2 19 7 47 10 62 5 23 2 28 -14 28 -27 0 -34 -11 -15 -25 15 -11 14 -15 -11
-40 -25 -25 -32 -27 -74 -21 -124 17 -167 18 -186 3 -25 -19 -14 -34 37 -48
23 -7 49 -18 57 -25 8 -6 29 -19 45 -27 25 -12 31 -22 33 -53 2 -20 6 -42 10
-48 11 -18 13 -36 14 -139 l1 -97 249 0 248 0 0 53 c0 41 -4 55 -20 65 -13 8
-20 23 -20 43 0 19 -9 38 -25 53 l-26 24 19 48 c13 37 17 72 15 138 -1 48 -4
91 -7 94 -4 3 0 12 8 21 7 9 16 44 19 77 6 58 15 104 39 198 5 21 28 59 52 85
23 25 61 73 85 106 25 33 58 71 74 85 16 14 45 38 63 54 19 16 34 36 32 45 -1
9 1 22 5 29 6 8 1 12 -15 12 -14 0 -30 11 -43 30 -11 16 -30 32 -43 35 -12 3
-20 10 -16 16 10 16 -27 50 -47 44 -11 -4 -25 2 -36 14 -10 12 -23 21 -30 21
-7 0 -43 15 -80 34 -38 18 -75 36 -83 39 -10 3 -4 9 18 17 30 11 44 30 22 30
-5 0 -10 -4 -10 -8 0 -20 -182 -62 -272 -62 -109 0 -164 27 -261 129 -45 48
-95 93 -110 101 -15 7 -45 29 -67 47 -29 25 -37 38 -32 55 3 13 1 19 -6 15 -5
-4 -17 -4 -26 -1 -26 10 -1 32 29 26 31 -5 31 3 3 45 -26 37 -34 39 -62 18
-19 -15 -19 -15 2 -15 12 0 22 -6 22 -14 0 -22 -33 -24 -52 -3 -9 10 -22 16
-28 12 -14 -9 -64 48 -89 100 -18 39 -43 145 -55 233 -6 41 -5 42 14 32 20
-11 20 -10 6 24 -8 20 -11 36 -7 36 11 0 31 -71 24 -83 -3 -6 -2 -7 4 -4 5 3
15 -10 22 -29 7 -18 17 -34 22 -34 6 0 9 3 7 8 -36 70 -58 139 -39 128 21 -13
130 33 131 56 0 12 -62 5 -66 -7 -8 -19 -49 -15 -63 7 -14 22 -7 38 17 38 19
0 141 52 142 60 0 3 -14 14 -31 24 -34 20 -86 23 -117 7 -11 -6 -29 -11 -39
-11 -17 1 -17 2 1 15 20 15 19 15 -1 15 -17 0 -21 8 -26 50 -3 28 -4 57 -1 64
6 15 80 17 102 3 7 -5 12 -4 12 2 0 5 -6 14 -14 18 -8 4 -15 17 -18 28 -3 16
-11 20 -43 20 -39 0 -40 1 -43 38 -4 46 -22 39 -22 -9 0 -26 -4 -34 -18 -34
-17 0 -18 11 -19 113 -1 61 1 104 4 95 5 -22 22 -23 29 -4 3 8 12 12 20 9 9
-3 14 2 14 17 0 11 -5 18 -10 15 -6 -3 -11 0 -11 7 -1 7 -3 23 -4 36 -1 13 4
26 11 29 8 3 14 14 14 24 0 18 -1 18 -20 -1 -13 -13 -20 -33 -20 -59 0 -22 -4
-43 -10 -46 -19 -12 -10 66 13 108 12 23 24 44 28 47 3 3 13 26 23 53 10 26
34 64 55 86 31 32 39 36 50 24 14 -16 47 -14 40 2 -2 5 -7 9 -11 8 -5 -2 -8 1
-8 7 0 12 71 90 83 90 5 0 20 9 34 20 14 11 34 20 45 20 11 0 17 4 13 9 -3 6
4 15 16 21 17 10 26 8 48 -8 22 -16 28 -17 39 -6 17 19 66 18 82 -1 7 -8 21
-15 32 -15 14 0 18 -5 14 -15 -3 -8 -1 -15 4 -15 6 0 10 5 10 12 0 7 19 -7 43
-30 63 -62 131 -122 140 -122 4 0 7 4 7 10 0 5 20 -5 44 -23 24 -17 52 -38 62
-45 10 -7 1 -3 -22 7 -22 11 -46 27 -53 35 -8 9 -18 16 -24 16 -6 0 4 -16 23
-35 22 -22 56 -42 97 -56 35 -11 63 -24 63 -28 0 -5 23 -23 52 -40 40 -25 48
-35 37 -42 -11 -7 -9 -9 8 -9 13 0 24 -8 28 -19 6 -21 38 -36 55 -26 5 3 10
-1 10 -10 0 -13 -6 -15 -32 -10 -18 4 -46 14 -61 22 -16 8 -31 13 -33 10 -3
-2 18 -14 45 -25 27 -12 52 -29 55 -38 5 -14 1 -16 -30 -11 -25 4 -41 2 -50
-8 -12 -12 -10 -15 20 -20 53 -10 71 -3 69 27 l-2 26 37 -15 c48 -19 53 -25
19 -19 -33 6 -35 -1 -4 -15 19 -8 17 -9 -10 -5 -36 6 -42 -4 -16 -25 12 -11
17 -11 20 -2 7 19 63 -13 63 -35 -1 -16 -1 -16 -11 1 -11 18 -39 24 -39 7 0
-5 4 -10 8 -10 4 0 8 -10 9 -22 0 -13 -1 -17 -4 -10 -6 16 -33 16 -33 -1 0
-14 27 -16 48 -3 6 4 12 2 12 -3 0 -6 9 -11 21 -11 11 0 17 4 14 10 -11 18
-14 51 -4 45 5 -4 7 -10 5 -14 -3 -4 -1 -13 5 -21 7 -12 9 -11 9 4 0 16 2 18
13 7 10 -10 9 -15 -4 -24 -9 -7 -20 -23 -24 -37 -7 -23 -7 -24 10 -10 14 12
19 12 23 2 3 -9 7 -10 17 -2 10 8 13 6 11 -7 0 -10 6 -18 14 -18 8 0 17 -14
21 -32 3 -18 4 -33 2 -33 -3 0 1 -8 8 -17 13 -16 12 -17 -4 -4 -29 23 -31 4
-2 -23 14 -14 32 -23 39 -20 9 4 12 -3 11 -20 -4 -36 5 -66 20 -66 8 0 11 -8
8 -19 -3 -11 0 -36 7 -57 9 -25 9 -38 2 -43 -11 -7 -11 -36 0 -47 4 -3 2 -14
-4 -24 -9 -14 -9 -22 1 -33 7 -9 8 -16 2 -19 -6 -1 -12 -34 -14 -72 -3 -40
-10 -72 -17 -76 -9 -5 -11 -20 -7 -44 6 -36 -10 -66 -35 -66 -6 0 -8 -10 -5
-22 7 -29 -15 -60 -37 -52 -22 8 -21 -15 2 -32 16 -12 16 -14 -6 -35 -13 -12
-20 -24 -15 -28 15 -9 22 -47 12 -62 -7 -12 -9 -12 -9 0 0 9 -6 7 -19 -7 -10
-12 -27 -22 -37 -22 -16 0 -17 2 -4 10 13 9 13 11 0 20 -21 14 -30 12 -35 -5
-3 -8 -8 -23 -12 -33 -4 -9 -7 -22 -8 -28 0 -6 -6 -18 -13 -27 -12 -14 -18
-32 -21 -59 -1 -4 -7 -5 -15 -2 -8 3 -17 1 -20 -5 -9 -15 36 -10 55 6 25 21
89 52 89 43 0 -4 -10 -14 -22 -23 -13 -8 -20 -18 -15 -23 4 -4 20 4 35 17 34
31 82 62 82 52 0 -4 7 2 15 13 8 10 14 15 15 9 0 -18 -17 -36 -31 -33 -8 2
-15 -7 -17 -21 -4 -23 -4 -23 22 -5 14 11 28 27 31 37 4 9 11 15 16 12 5 -3 6
2 2 11 -5 13 -3 15 7 9 10 -6 12 -4 6 11 -4 10 -4 15 0 11 4 -4 13 -2 21 4 9
9 13 8 13 0 0 -6 5 -11 10 -11 6 0 10 4 10 9 0 9 57 71 66 71 2 0 4 -7 4 -15
0 -8 4 -15 10 -15 5 0 6 7 3 17 -4 11 -3 14 5 9 6 -4 14 -23 18 -44 6 -29 23
-52 81 -106 40 -38 71 -71 68 -74 -2 -3 -11 1 -20 8 -8 7 -15 8 -15 3 0 -19
58 -52 83 -48 16 3 27 0 31 -11 4 -10 13 -13 26 -9 11 3 20 2 20 -3 0 -6 25
-20 55 -33 30 -12 55 -26 55 -31 0 -4 11 -8 24 -8 13 0 26 -7 30 -15 3 -8 11
-15 18 -15 7 0 34 -11 60 -25 50 -26 60 -25 108 12 24 18 84 19 112 1 15 -10
53 -18 95 -20 51 -3 78 -10 100 -26 25 -17 36 -20 62 -12 17 5 32 8 34 7 1 0
23 8 49 18 l48 20 0 1583 0 1582 -772 0 c-444 0 -767 -4 -758 -9z m1380 -260
c0 -117 -13 -159 -40 -127 -19 24 -24 107 -10 179 15 75 18 81 36 66 10 -8 14
-39 14 -118z m-46 -563 c31 -44 16 -500 -18 -583 -28 -67 -56 -34 -72 86 -5
41 8 273 24 420 7 61 23 99 43 99 4 0 15 -10 23 -22z m-2364 -198 c0 -5 -5
-10 -11 -10 -5 0 -7 5 -4 10 3 6 8 10 11 10 2 0 4 -4 4 -10z m-327 -405 c-3
-9 -8 -14 -10 -11 -3 3 -2 9 2 15 9 16 15 13 8 -4z m-57 -47 c-18 -26 -22 -17
-5 14 6 11 13 17 16 15 3 -3 -2 -16 -11 -29z m1431 -124 c-3 -3 -12 -4 -19 -1
-8 3 -5 6 6 6 11 1 17 -2 13 -5z m120 -100 c-3 -3 -12 -4 -19 -1 -8 3 -5 6 6
6 11 1 17 -2 13 -5z m-1315 -276 c4 -50 1 -65 -11 -75 -18 -13 -28 3 -31 53
-5 66 0 84 19 84 16 0 19 -10 23 -62z m1659 -5 c-9 -16 -10 -16 -11 -1 0 9 3
25 7 35 7 16 8 17 11 1 2 -10 -1 -25 -7 -35z m112 -5 c5 -41 -1 -58 -18 -52
-7 3 -16 0 -20 -6 -13 -21 5 -24 39 -7 l34 16 0 -45 c0 -49 -23 -84 -56 -84
-10 0 -23 -5 -30 -12 -9 -9 -15 -9 -24 0 -18 18 -28 14 -25 -9 1 -12 -4 -24
-10 -26 -9 -3 -13 7 -13 30 0 20 6 37 13 40 10 4 10 7 0 18 -17 18 -16 30 2
23 11 -5 13 1 8 30 -5 30 -1 39 28 65 18 17 39 31 47 31 7 0 10 5 7 10 -3 6
-2 10 3 10 5 0 12 -15 15 -32z m-2026 -75 c-2 -21 -4 -6 -4 32 0 39 2 55 4 38
2 -18 2 -50 0 -70z m359 -55 c-16 -9 -46 -1 -46 13 0 4 8 13 18 18 13 8 20 6
30 -6 10 -14 10 -19 -2 -25z m-389 -100 c-3 -8 -6 -5 -6 6 -1 11 2 17 5 13 3
-3 4 -12 1 -19z m73 -462 c-4 -12 -6 -59 -3 -103 6 -85 -2 -147 -16 -124 -12
19 -12 211 -1 211 6 0 10 12 10 26 0 14 4 23 10 19 5 -3 6 -15 0 -29z m-41
-98 c-1 -47 -2 -50 -10 -23 -7 26 -3 75 7 75 2 0 4 -24 3 -52z m1523 -67 c-7
-4 -12 -14 -10 -21 2 -7 -6 -14 -16 -16 -11 -1 -23 -10 -28 -18 -5 -9 -14 -16
-20 -16 -16 0 55 78 72 79 12 1 12 -1 2 -8z m-1509 -143 c-3 -32 -9 -58 -14
-58 -10 0 -12 90 -3 115 13 32 22 -1 17 -57z m2172 -76 c-3 -3 -11 0 -18 7 -9
10 -8 11 6 5 10 -3 15 -9 12 -12z m-2295 -29 c0 -5 -5 -15 -10 -23 -8 -12 -10
-11 -10 8 0 12 5 22 10 22 6 0 10 -3 10 -7z m-25 -43 c3 -5 -4 -26 -15 -47
l-21 -38 5 34 c4 18 6 40 6 47 0 16 16 19 25 4z m59 -54 c4 -27 3 -54 -4 -65
-5 -11 -12 -44 -15 -74 -5 -58 -47 -142 -101 -202 l-27 -30 7 74 c3 41 9 85
12 98 4 13 2 23 -4 23 -6 0 -13 -8 -15 -17 -3 -10 -5 1 -6 24 0 23 2 48 5 57
10 27 24 18 24 -16 0 -38 16 -27 24 17 3 16 10 31 16 33 5 2 10 9 10 16 0 6
11 28 25 48 14 20 25 44 25 53 0 33 18 4 24 -39z m-47 -361 c-4 -8 -11 -15
-17 -15 -7 0 -7 6 0 21 13 23 26 19 17 -6z m-27 -72 c-15 -50 -22 -63 -36 -63
-7 0 -16 11 -20 25 -5 19 0 30 17 45 35 28 49 26 39 -7z m1006 -89 c-22 -21
-31 -12 -16 16 8 15 15 19 22 12 8 -8 6 -16 -6 -28z m234 -24 c0 -5 -2 -10 -4
-10 -3 0 -8 5 -11 10 -3 6 -1 10 4 10 6 0 11 -4 11 -10z"/>
<path d="M2490 2411 c0 -5 5 -13 10 -16 6 -3 10 -2 10 4 0 5 -4 13 -10 16 -5
3 -10 2 -10 -4z"/>
<path d="M2545 2380 c-3 -5 -2 -10 4 -10 5 0 13 5 16 10 3 6 2 10 -4 10 -5 0
-13 -4 -16 -10z"/>
<path d="M798 4276 c-6 -28 1 -46 16 -46 14 0 39 47 28 53 -29 16 -40 14 -44
-7z"/>
<path d="M142 3381 c-25 -15 -8 -44 41 -70 l49 -24 27 29 28 29 -44 23 c-47
23 -79 27 -101 13z"/>
<path d="M930 3014 c0 -14 3 -14 15 -4 8 7 15 14 15 16 0 2 -7 4 -15 4 -8 0
-15 -7 -15 -16z"/>
<path d="M1695 2986 c11 -8 24 -12 29 -8 5 3 1 9 -10 13 -31 12 -39 10 -19 -5z"/>
<path d="M1760 2971 c0 -5 5 -13 10 -16 6 -3 10 -2 10 4 0 5 -4 13 -10 16 -5
3 -10 2 -10 -4z"/>
<path d="M1522 2959 c2 -7 32 -22 66 -32 34 -10 62 -22 62 -27 0 -6 10 -10 21
-10 18 0 19 2 9 15 -7 8 -9 15 -4 15 15 1 -89 40 -125 46 -26 5 -33 4 -29 -7z"/>
<path d="M1430 2939 c12 -8 10 -9 -7 -4 -12 3 -33 0 -45 -6 -13 -7 -29 -14
-37 -15 -7 -2 -18 -7 -24 -13 -7 -7 -3 -8 13 -4 20 5 21 3 15 -18 -6 -20 -5
-22 6 -11 7 6 22 12 34 12 11 0 47 14 80 31 39 20 50 30 32 26 -15 -2 -30 0
-33 4 -3 5 -15 9 -27 9 -18 0 -19 -2 -7 -11z"/>
<path d="M451 2924 c0 -11 3 -14 6 -6 3 7 2 16 -1 19 -3 4 -6 -2 -5 -13z"/>
<path d="M1703 2933 c-22 -8 -14 -18 12 -18 14 0 25 3 25 6 0 10 -23 17 -37
12z"/>
<path d="M1710 2885 c7 -8 20 -15 28 -15 13 0 12 3 -4 15 -25 19 -40 19 -24 0z"/>
<path d="M1291 2854 c0 -11 3 -14 6 -6 3 7 2 16 -1 19 -3 4 -6 -2 -5 -13z"/>
<path d="M1645 2860 c-3 -5 -1 -10 4 -10 6 0 11 5 11 10 0 6 -2 10 -4 10 -3 0
-8 -4 -11 -10z"/>
<path d="M1695 2860 c3 -5 8 -10 11 -10 2 0 4 5 4 10 0 6 -5 10 -11 10 -5 0
-7 -4 -4 -10z"/>
<path d="M440 2845 c0 -8 2 -15 4 -15 2 0 6 7 10 15 3 8 1 15 -4 15 -6 0 -10
-7 -10 -15z"/>
<path d="M782 2830 c0 -14 -2 -33 -6 -42 -8 -18 -1 -38 13 -38 15 0 17 34 4
70 -10 28 -13 30 -11 10z"/>
<path d="M846 2831 c-4 -5 -2 -12 3 -15 5 -4 12 -2 15 3 4 5 2 12 -3 15 -5 4
-12 2 -15 -3z"/>
<path d="M1760 2810 c0 -5 5 -10 10 -10 6 0 10 5 10 10 0 6 -4 10 -10 10 -5 0
-10 -4 -10 -10z"/>
<path d="M1768 2773 c-10 -2 -15 -10 -11 -19 5 -14 -21 -20 -69 -16 -10 1 -18
-2 -18 -7 0 -5 -24 -9 -52 -9 -83 -2 -174 -31 -210 -66 -29 -30 -64 -94 -55
-102 2 -3 24 7 48 21 28 16 37 25 25 25 -17 0 -17 2 5 23 23 23 25 23 41 5 21
-24 25 -23 100 10 34 16 79 32 98 36 19 3 53 17 75 29 31 18 40 29 40 50 1 15
1 26 0 26 0 -1 -8 -3 -17 -6z m-238 -103 c0 -5 -2 -10 -4 -10 -3 0 -8 5 -11
10 -3 6 -1 10 4 10 6 0 11 -4 11 -10z"/>
<path d="M1573 2743 c15 -2 39 -2 55 0 15 2 2 4 -28 4 -30 0 -43 -2 -27 -4z"/>
<path d="M1270 2689 c0 -5 5 -7 10 -4 6 3 10 8 10 11 0 2 -4 4 -10 4 -5 0 -10
-5 -10 -11z"/>
<path d="M2017 2681 c-3 -13 1 -21 13 -24 13 -3 16 1 12 19 -5 29 -18 31 -25
5z"/>
<path d="M1906 2662 c-3 -6 -1 -14 5 -17 15 -10 25 3 12 16 -7 7 -13 7 -17 1z"/>
<path d="M2010 2640 c0 -5 7 -10 16 -10 8 0 12 5 9 10 -3 6 -10 10 -16 10 -5
0 -9 -4 -9 -10z"/>
<path d="M1631 2626 c-9 -10 -8 -15 3 -19 9 -4 18 -1 22 5 5 7 2 8 -6 3 -10
-6 -12 -4 -7 8 8 21 3 22 -12 3z"/>
<path d="M2113 2630 c-28 -11 -30 -20 -4 -20 10 0 21 7 25 15 3 8 4 15 3 14
-1 0 -12 -4 -24 -9z"/>
<path d="M2030 2597 c0 -19 22 -35 28 -19 2 6 10 8 18 5 8 -3 14 0 14 6 0 6
-6 11 -14 11 -8 0 -21 3 -30 6 -10 4 -16 1 -16 -9z"/>
<path d="M1598 2584 c-9 -9 -52 -27 -95 -39 -51 -15 -72 -26 -62 -30 33 -13
172 41 183 72 7 18 -6 16 -26 -3z"/>
<path d="M1980 2580 c0 -5 5 -10 10 -10 6 0 10 5 10 10 0 6 -4 10 -10 10 -5 0
-10 -4 -10 -10z"/>
<path d="M2110 2551 c0 -6 5 -13 10 -16 6 -3 10 1 10 9 0 9 -4 16 -10 16 -5 0
-10 -4 -10 -9z"/>
<path d="M1370 2511 c0 -5 9 -7 20 -4 11 3 20 7 20 9 0 2 -9 4 -20 4 -11 0
-20 -4 -20 -9z"/>
<path d="M2060 2508 c0 -6 7 -8 15 -4 18 7 20 -5 3 -22 -9 -9 -9 -12 0 -12 11
0 14 4 16 32 1 6 -7 12 -16 14 -10 1 -18 -2 -18 -8z"/>
<path d="M1975 2500 c3 -5 8 -10 11 -10 2 0 4 5 4 10 0 6 -5 10 -11 10 -5 0
-7 -4 -4 -10z"/>
<path d="M2160 2490 c6 -11 15 -20 21 -20 6 0 6 7 -1 20 -6 11 -15 20 -21 20
-6 0 -6 -7 1 -20z"/>
<path d="M2110 2490 c0 -5 5 -10 10 -10 6 0 10 5 10 10 0 6 -4 10 -10 10 -5 0
-10 -4 -10 -10z"/>
<path d="M1040 2480 c0 -5 5 -10 11 -10 5 0 7 5 4 10 -3 6 -8 10 -11 10 -2 0
-4 -4 -4 -10z"/>
<path d="M2170 2420 c0 -5 5 -10 10 -10 6 0 10 5 10 10 0 6 -4 10 -10 10 -5 0
-10 -4 -10 -10z"/>
<path d="M2200 2413 c0 -10 5 -25 10 -33 8 -12 10 -9 10 12 0 15 -4 30 -10 33
-5 3 -10 -2 -10 -12z"/>
<path d="M2050 2395 c0 -8 9 -15 20 -15 11 0 20 7 20 15 0 8 -9 15 -20 15 -11
0 -20 -7 -20 -15z"/>
<path d="M2150 2290 c0 -11 4 -20 10 -20 5 0 14 9 20 20 9 17 8 20 -10 20 -13
0 -20 -7 -20 -20z"/>
<path d="M2060 2280 c0 -5 5 -10 10 -10 6 0 10 5 10 10 0 6 -4 10 -10 10 -5 0
-10 -4 -10 -10z"/>
<path d="M1910 2260 c0 -5 5 -10 11 -10 5 0 7 5 4 10 -3 6 -8 10 -11 10 -2 0
-4 -4 -4 -10z"/>
<path d="M1949 2216 c-20 -39 -9 -66 25 -66 25 0 36 17 36 56 0 17 -6 24 -19
24 -11 0 -21 4 -23 9 -1 5 -10 -5 -19 -23z"/>
<path d="M1790 2230 c0 -5 5 -10 10 -10 6 0 10 5 10 10 0 6 -4 10 -10 10 -5 0
-10 -4 -10 -10z"/>
<path d="M1890 2231 c0 -5 9 -11 21 -14 16 -4 18 -3 8 9 -13 16 -29 19 -29 5z"/>
<path d="M1855 2210 c-3 -5 1 -10 9 -10 9 0 16 5 16 10 0 6 -4 10 -9 10 -6 0
-13 -4 -16 -10z"/>
<path d="M2032 2189 c2 -6 8 -10 13 -10 5 0 11 4 13 10 2 6 -4 11 -13 11 -9 0
-15 -5 -13 -11z"/>
<path d="M1434 2163 c-22 -28 -44 -31 -129 -18 -44 6 -52 4 -69 -14 -19 -21
-19 -22 1 -41 25 -22 35 -16 27 16 -5 21 -3 24 22 24 16 0 46 -5 68 -11 57
-16 116 15 116 60 0 18 -14 11 -36 -16z"/>
<path d="M1680 2171 c0 -12 60 -43 74 -38 7 3 33 -5 58 -17 40 -19 44 -20 35
-4 -6 9 -24 20 -39 23 -15 4 -32 14 -37 23 -9 15 -91 28 -91 13z"/>
<path d="M1890 2170 c0 -5 5 -10 11 -10 5 0 7 5 4 10 -3 6 -8 10 -11 10 -2 0
-4 -4 -4 -10z"/>
<path d="M930 2140 c0 -5 5 -10 10 -10 6 0 10 5 10 10 0 6 -4 10 -10 10 -5 0
-10 -4 -10 -10z"/>
<path d="M976 2131 c-4 -7 -5 -15 -2 -18 9 -9 19 4 14 18 -4 11 -6 11 -12 0z"/>
<path d="M2190 2110 c0 -5 5 -10 10 -10 6 0 10 5 10 10 0 6 -4 10 -10 10 -5 0
-10 -4 -10 -10z"/>
<path d="M919 2095 c14 -25 113 -134 109 -119 -2 6 -29 40 -62 75 -32 35 -54
55 -47 44z"/>
<path d="M2080 2090 c0 -5 5 -10 11 -10 5 0 7 5 4 10 -3 6 -8 10 -11 10 -2 0
-4 -4 -4 -10z"/>
<path d="M1090 2080 c-7 -5 -14 -24 -15 -44 -1 -43 26 -56 49 -21 15 23 56 41
56 24 0 -16 48 -10 54 7 9 24 9 24 -32 24 -20 0 -51 4 -68 9 -17 5 -37 5 -44
1z"/>
<path d="M1729 2028 c-28 -21 -123 -48 -173 -48 -23 0 -26 -3 -17 -14 9 -11 5
-15 -24 -20 -19 -4 -35 -11 -35 -17 0 -6 -5 -7 -10 -4 -13 8 -80 -14 -80 -26
0 -5 -12 -14 -27 -20 -16 -5 -35 -12 -43 -16 -8 -3 -24 -7 -35 -9 -11 -2 -32
-6 -47 -8 -20 -4 -26 -2 -22 8 3 8 1 17 -5 21 -6 3 -11 -1 -11 -11 0 -13 -3
-14 -15 -4 -8 6 -19 9 -25 5 -6 -4 -18 -1 -27 7 -14 11 -16 11 -8 -1 6 -11 4
-13 -9 -8 -13 5 -17 2 -14 -10 3 -19 47 -44 76 -44 34 0 179 40 292 80 63 23
127 41 141 41 14 0 38 9 52 20 14 11 28 20 31 20 3 0 21 11 41 24 20 14 41 27
48 30 9 3 8 7 -3 15 -19 14 -20 14 -51 -11z"/>
<path d="M2036 1971 c-4 -7 -5 -15 -2 -18 9 -9 19 4 14 18 -4 11 -6 11 -12 0z"/>
<path d="M1035 1940 c-3 -6 1 -7 9 -4 18 7 21 14 7 14 -6 0 -13 -4 -16 -10z"/>
<path d="M2105 1930 c-3 -5 -1 -10 4 -10 6 0 11 5 11 10 0 6 -2 10 -4 10 -3 0
-8 -4 -11 -10z"/>
<path d="M1955 1900 c-3 -5 -1 -10 4 -10 6 0 11 5 11 10 0 6 -2 10 -4 10 -3 0
-8 -4 -11 -10z"/>
<path d="M2006 1782 c-3 -5 -8 -24 -11 -43 -4 -30 -4 -32 7 -14 7 11 14 30 15
43 4 22 -2 29 -11 14z"/>
<path d="M1100 1736 c0 -2 8 -10 18 -17 15 -13 16 -12 3 4 -13 16 -21 21 -21
13z"/>
<path d="M1980 1685 c0 -8 4 -15 10 -15 5 0 7 7 4 15 -4 8 -8 15 -10 15 -2 0
-4 -7 -4 -15z"/>
<path d="M2291 1674 c0 -11 3 -14 6 -6 3 7 2 16 -1 19 -3 4 -6 -2 -5 -13z"/>
<path d="M1957 1653 c-4 -3 -7 -11 -7 -17 0 -6 5 -5 12 2 6 6 9 14 7 17 -3 3
-9 2 -12 -2z"/>
<path d="M2324 1616 c-8 -22 -2 -27 16 -16 12 7 12 12 3 21 -10 10 -14 9 -19
-5z"/>
<path d="M1620 1600 c0 -5 5 -10 10 -10 6 0 10 5 10 10 0 6 -4 10 -10 10 -5 0
-10 -4 -10 -10z"/>
<path d="M1352 1588 c5 -15 28 -23 28 -10 0 5 -7 13 -16 16 -10 4 -14 1 -12
-6z"/>
<path d="M1423 1593 c-20 -7 -15 -23 7 -23 11 0 20 4 20 9 0 13 -12 19 -27 14z"/>
<path d="M1920 1590 c-9 -6 -10 -10 -3 -10 6 0 15 5 18 10 8 12 4 12 -15 0z"/>
<path d="M1750 1565 c0 -8 4 -15 9 -15 5 0 11 7 15 15 3 9 0 15 -9 15 -8 0
-15 -7 -15 -15z"/>
<path d="M2217 1564 c-4 -4 -7 -17 -7 -28 0 -19 1 -19 17 -3 12 11 14 20 7 27
-6 6 -13 7 -17 4z"/>
<path d="M1685 1540 c-3 -5 3 -10 14 -10 11 0 23 5 26 10 3 6 -3 10 -14 10
-11 0 -23 -4 -26 -10z"/>
<path d="M1435 1510 c4 -6 11 -8 16 -5 14 9 11 15 -7 15 -8 0 -12 -5 -9 -10z"/>
<path d="M1970 1510 c0 -5 7 -10 15 -10 8 0 15 5 15 10 0 6 -7 10 -15 10 -8 0
-15 -4 -15 -10z"/>
<path d="M1658 1503 c7 -3 16 -2 19 1 4 3 -2 6 -13 5 -11 0 -14 -3 -6 -6z"/>
<path d="M1840 1499 c0 -5 5 -7 10 -4 6 3 10 8 10 11 0 2 -4 4 -10 4 -5 0 -10
-5 -10 -11z"/>
<path d="M2456 1474 c-8 -21 -8 -24 3 -24 12 0 22 28 12 35 -5 3 -12 -2 -15
-11z"/>
<path d="M2130 1444 c0 -14 3 -14 15 -4 8 7 15 14 15 16 0 2 -7 4 -15 4 -8 0
-15 -7 -15 -16z"/>
<path d="M2490 1420 c0 -5 5 -10 10 -10 6 0 10 5 10 10 0 6 -4 10 -10 10 -5 0
-10 -4 -10 -10z"/>
<path d="M2210 1360 c0 -5 5 -10 10 -10 6 0 10 5 10 10 0 6 -4 10 -10 10 -5 0
-10 -4 -10 -10z"/>
<path d="M2075 1310 c3 -5 8 -10 11 -10 2 0 4 5 4 10 0 6 -5 10 -11 10 -5 0
-7 -4 -4 -10z"/>
<path d="M2120 1300 c0 -5 5 -10 10 -10 6 0 10 5 10 10 0 6 -4 10 -10 10 -5 0
-10 -4 -10 -10z"/>
<path d="M2168 1300 c-6 -19 2 -50 13 -50 11 0 11 17 0 45 -6 15 -9 16 -13 5z"/>
<path d="M3397 1221 c-4 -17 -3 -21 5 -13 5 5 8 16 6 23 -3 8 -7 3 -11 -10z"/>
<path d="M3471 1038 c7 -16 16 -28 21 -28 13 0 10 9 -13 33 l-21 22 13 -27z"/>
<path d="M275 740 c-3 -5 -1 -10 4 -10 6 0 11 5 11 10 0 6 -2 10 -4 10 -3 0
-8 -4 -11 -10z"/>
<path d="M3435 480 c-3 -5 -1 -10 4 -10 6 0 11 5 11 10 0 6 -2 10 -4 10 -3 0
-8 -4 -11 -10z"/>
<path d="M3473 442 c-10 -6 -10 -15 -1 -40 17 -43 28 -40 28 8 0 40 -5 46 -27
32z"/>
<path d="M3410 360 c0 -16 5 -32 10 -35 16 -10 12 -82 -6 -123 l-17 -37 -7 39
c-4 21 -14 43 -23 47 -10 6 -13 17 -9 31 4 15 2 19 -7 14 -7 -5 -21 0 -32 10
-27 24 -32 13 -19 -37 9 -39 76 -186 90 -199 3 -3 10 -18 15 -35 9 -26 16 -30
53 -33 l42 -3 0 140 c0 130 -1 140 -17 134 -17 -6 -17 -5 0 11 13 13 17 27 12
45 -4 14 -7 26 -8 26 -1 0 -19 8 -39 18 l-38 17 0 -30z"/>
<path d="M216 370 c-27 -9 -45 -25 -46 -42 0 -5 3 -7 8 -6 4 1 18 -4 30 -11
31 -17 68 -7 88 24 9 14 15 28 12 30 -10 11 -65 13 -92 5z"/>
<path d="M87 315 c-16 -8 -42 -29 -58 -46 l-30 -32 3 -116 c3 -97 5 -112 15
-91 6 14 29 51 52 83 22 32 44 70 47 85 4 15 10 32 14 37 4 6 10 29 14 53 5
36 4 42 -11 42 -10 0 -31 -7 -46 -15z"/>
<path d="M3074 205 c-4 -10 -1 -21 7 -26 23 -14 31 -10 27 13 -4 27 -26 35
-34 13z"/>
<path d="M3176 87 c10 -15 23 -27 28 -27 12 0 -18 43 -34 48 -8 3 -6 -5 6 -21z"/>
<path d="M3075 40 c-3 -5 -14 -10 -23 -10 -9 0 -26 -7 -36 -15 -18 -14 -10
-15 78 -15 103 0 114 8 49 35 -42 18 -59 19 -68 5z"/>
<path d="M2925 10 c-3 -5 -1 -10 4 -10 6 0 11 5 11 10 0 6 -2 10 -4 10 -3 0
-8 -4 -11 -10z"/>
</g>
</svg>
