<?xml version="1.0" standalone="no"?>
<!DOCTYPE svg PUBLIC "-//W3C//DTD SVG 20010904//EN"
 "http://www.w3.org/TR/2001/REC-SVG-20010904/DTD/svg10.dtd">
<svg version="1.0" xmlns="http://www.w3.org/2000/svg"
 width="350.000000pt" height="450.000000pt" viewBox="0 0 350.000000 450.000000"
 preserveAspectRatio="xMidYMid meet">

<g transform="translate(0.000000,450.000000) scale(0.100000,-0.100000)"
fill="#000000" stroke="none">
<path d="M2721 4413 c-3 -155 -17 -226 -50 -250 -22 -16 -7 -27 18 -13 37 19
75 -20 94 -95 3 -11 3 16 1 60 -6 130 -6 311 2 349 6 36 6 36 -29 36 l-34 0
-2 -87z"/>
<path d="M2554 4464 c4 -9 3 -22 -2 -28 -5 -6 -14 -37 -21 -69 -13 -60 -29
-77 -73 -77 -13 0 -29 5 -36 12 -7 7 -3 -7 8 -30 26 -54 35 -168 15 -198 -15
-23 -7 -78 21 -141 8 -17 14 -47 14 -66 0 -19 7 -48 15 -63 30 -57 15 -144
-36 -208 -19 -24 -20 -31 -10 -48 28 -45 40 -116 42 -243 1 -83 -2 -139 -10
-152 -15 -28 -14 -108 1 -136 13 -24 22 -114 10 -103 -4 4 -11 28 -17 52 -5
25 -14 45 -19 44 -5 -1 -22 29 -39 67 -36 84 -54 104 -85 96 -15 -3 -21 -11
-18 -20 3 -8 1 -11 -4 -8 -17 10 -11 -11 14 -56 14 -24 22 -47 20 -51 -3 -5
-2 -15 3 -21 4 -7 2 -6 -5 2 -7 9 -33 48 -58 86 -25 39 -48 68 -51 66 -3 -2
-25 16 -49 40 -32 31 -44 38 -44 26 0 -10 -5 -25 -11 -35 -11 -17 7 -58 80
-186 19 -34 21 -47 15 -105 -4 -36 -10 -68 -15 -71 -11 -8 29 -183 69 -300 3
-8 4 -18 4 -22 -3 -15 21 -8 35 10 13 16 13 16 11 -3 -1 -11 4 -37 11 -58 12
-36 11 -40 -9 -62 -13 -14 -20 -31 -17 -39 7 -18 23 -21 32 -6 3 6 20 10 36
10 46 0 67 16 80 60 11 35 10 42 -6 60 -10 11 -21 17 -26 14 -5 -3 -18 0 -31
7 -18 10 -24 8 -35 -7 -12 -17 -13 -17 -13 3 0 19 28 53 44 53 5 0 6 -8 4 -17
-4 -14 2 -19 24 -20 16 -1 26 2 23 7 -4 6 -2 10 3 10 5 0 12 9 15 20 4 14 10
18 22 14 29 -12 63 -48 68 -74 3 -16 5 -10 6 17 1 31 -5 47 -20 62 -19 18 -83
36 -73 20 2 -4 -11 -12 -29 -18 -31 -10 -31 -10 -9 6 12 8 22 23 22 33 0 37
25 42 73 17 l45 -24 6 30 c10 50 7 92 -9 114 -12 17 -15 46 -14 120 1 54 0
122 -3 151 -4 35 -1 63 8 80 7 15 18 48 25 73 11 41 10 55 -10 117 -22 69 -22
140 1 168 5 7 4 36 -2 70 -6 33 -12 70 -14 84 -1 14 -6 37 -10 53 -5 18 -4 32
4 42 7 9 10 18 7 22 -4 3 -2 14 4 25 7 13 6 29 -2 51 -9 25 -8 42 2 77 7 25
14 58 15 74 2 26 0 28 -26 24 -37 -6 -41 4 -46 111 -2 46 -6 86 -9 89 -6 7 5
54 16 67 5 5 9 17 9 26 0 9 6 22 14 29 8 6 13 17 10 23 -2 7 2 35 11 62 18 60
19 85 4 85 -6 0 -8 -7 -5 -16z m-54 -1584 c0 -11 -2 -20 -4 -20 -2 0 -6 9 -9
20 -3 11 -1 20 4 20 5 0 9 -9 9 -20z m-3 -112 c-3 -8 -6 -5 -6 6 -1 11 2 17 5
13 3 -3 4 -12 1 -19z"/>
<path d="M3416 4325 c-15 -11 -16 -15 -5 -16 10 0 10 -2 -3 -7 -15 -6 -15 -9
2 -29 15 -19 20 -20 29 -9 15 18 19 68 6 72 -5 2 -19 -3 -29 -11z m24 -39 c0
-3 -4 -8 -10 -11 -5 -3 -10 -1 -10 4 0 6 5 11 10 11 6 0 10 -2 10 -4z"/>
<path d="M1260 4249 c0 -6 -4 -7 -10 -4 -17 11 -18 -109 0 -129 7 -10 7 -22 0
-41 -9 -23 -7 -32 9 -49 10 -12 22 -31 26 -43 3 -13 12 -23 20 -23 7 0 15 -5
17 -10 2 -6 4 7 4 30 1 25 -3 40 -11 40 -6 0 -20 9 -30 20 -15 16 -16 25 -7
44 7 15 7 27 1 33 -15 15 1 42 27 49 24 6 31 28 15 52 -11 18 -61 43 -61 31z"/>
<path d="M1805 4238 c4 -13 8 -34 9 -48 5 -42 7 -46 16 -22 12 29 2 79 -17 87
-12 4 -14 0 -8 -17z"/>
<path d="M1450 4170 c0 -5 -7 -10 -15 -10 -22 0 -18 -37 6 -58 11 -9 27 -29
35 -44 18 -34 34 -36 34 -4 0 15 -7 26 -20 29 -16 4 -20 14 -20 51 0 25 -4 46
-10 46 -5 0 -10 -4 -10 -10z"/>
<path d="M2830 4129 c0 -5 5 -7 10 -4 6 3 10 8 10 11 0 2 -4 4 -10 4 -5 0 -10
-5 -10 -11z"/>
<path d="M2627 4099 c-18 -11 -24 -39 -7 -39 10 0 34 39 28 45 -2 2 -11 -1
-21 -6z"/>
<path d="M2820 4083 c0 -4 5 -15 10 -23 8 -13 10 -13 10 2 0 9 -4 20 -10 23
-5 3 -10 3 -10 -2z"/>
<path d="M1824 4036 c-8 -22 3 -33 18 -18 9 9 9 15 0 24 -9 9 -13 7 -18 -6z"/>
<path d="M2830 3945 c-1 -27 -3 -68 -5 -90 -13 -164 -17 -225 -21 -338 -2 -71
-6 -133 -10 -138 -5 -9 -17 -433 -14 -524 1 -22 9 -58 19 -80 12 -28 15 -48
10 -64 -6 -15 -4 -32 6 -51 8 -15 17 -46 21 -68 5 -32 2 -44 -15 -61 -12 -12
-30 -21 -42 -21 -17 0 -19 -4 -13 -22 11 -32 6 -275 -7 -388 -16 -133 -26
-383 -16 -397 5 -7 6 -16 3 -21 -11 -18 19 -28 72 -24 58 4 60 8 38 70 -8 22
-15 82 -16 134 0 51 -2 122 -3 158 -4 166 24 446 64 645 27 136 28 139 12 170
-9 17 -17 59 -19 95 -1 36 -5 72 -8 80 -3 8 -8 29 -10 45 -2 17 -6 37 -9 45
-15 42 -14 49 3 65 15 14 17 22 8 46 -6 17 -8 56 -5 87 4 45 0 73 -20 130
l-26 74 21 27 c17 24 19 39 16 112 -10 190 -14 256 -23 304 l-8 50 -3 -50z"/>
<path d="M1330 3921 c0 -11 26 -22 34 -14 3 3 3 10 0 14 -7 12 -34 11 -34 0z"/>
<path d="M1462 3898 c-7 -7 -12 -19 -12 -28 0 -8 -6 -24 -14 -35 -11 -16 -12
-40 -4 -124 5 -58 13 -112 18 -121 5 -10 6 -49 3 -87 -3 -39 -3 -83 1 -98 7
-26 8 -27 27 -10 31 29 41 86 33 191 -5 69 -12 101 -25 118 -27 34 -34 97 -16
132 25 49 30 74 15 74 -8 0 -19 -5 -26 -12z"/>
<path d="M13 3839 c-1 -21 2 -39 8 -39 5 0 9 3 10 8 0 4 2 17 5 28 2 12 -2 27
-9 32 -10 9 -13 2 -14 -29z"/>
<path d="M1814 3799 c-15 -19 -25 -77 -15 -84 17 -10 43 45 34 72 -7 20 -11
22 -19 12z"/>
<path d="M2766 3783 c-3 -10 -2 -40 3 -68 5 -28 9 -39 10 -25 1 14 3 42 5 63
3 40 -9 60 -18 30z"/>
<path d="M3475 3750 c3 -5 10 -10 16 -10 5 0 9 5 9 10 0 6 -7 10 -16 10 -8 0
-12 -4 -9 -10z"/>
<path d="M3395 3658 c-4 -13 -9 -41 -11 -63 -2 -23 -11 -43 -21 -49 -20 -11
-93 -88 -93 -98 0 -5 11 -8 24 -8 14 0 28 -4 31 -10 3 -5 19 -10 35 -10 30 0
60 -22 60 -44 0 -20 -22 -36 -51 -36 -19 0 -38 -13 -68 -46 -40 -44 -41 -48
-26 -70 8 -13 15 -32 15 -42 0 -11 14 -25 36 -35 25 -12 41 -30 55 -61 21 -48
17 -106 -7 -106 -17 0 -20 -85 -4 -95 7 -4 9 -39 6 -90 -4 -86 5 -158 17 -139
3 6 11 65 16 132 6 74 16 133 26 152 9 18 15 48 14 69 -2 20 0 42 4 48 4 6 -4
18 -17 27 -30 19 -42 52 -26 71 6 7 12 44 14 81 2 56 6 70 23 81 18 12 20 18
10 49 -9 29 -8 37 4 45 8 5 20 7 27 4 9 -3 12 9 10 43 -1 26 -3 42 -5 36 -6
-18 -53 -3 -70 22 -9 15 -14 40 -12 68 3 27 0 42 -6 38 -5 -3 1 7 15 23 14 16
19 25 13 21 -7 -4 -13 -2 -13 3 0 20 -18 11 -25 -11z"/>
<path d="M1775 3525 c-7 -66 -4 -82 13 -71 12 7 24 98 16 120 -12 32 -23 15
-29 -49z"/>
<path d="M3057 3486 c-10 -22 -25 -56 -34 -73 -15 -30 -15 -37 1 -86 13 -41
14 -60 6 -81 -13 -36 -13 -119 2 -150 9 -21 8 -29 -6 -44 -9 -11 -16 -35 -16
-58 1 -124 8 -232 18 -254 l11 -25 0 29 c1 15 11 45 22 66 19 33 20 43 10 71
-16 46 -14 145 5 180 9 18 12 39 8 52 -11 35 -12 181 -1 195 7 8 6 20 -1 35
-11 22 -10 115 3 153 13 40 -10 32 -28 -10z"/>
<path d="M1064 3495 c-8 -19 23 -68 39 -62 17 5 21 58 5 68 -20 13 -38 11 -44
-6z"/>
<path d="M1830 3410 c-8 -5 -10 -10 -5 -11 6 -1 -3 -4 -20 -8 l-29 -6 23 -22
c13 -12 29 -19 35 -16 6 4 5 -1 -2 -10 -8 -9 -11 -21 -7 -27 3 -5 1 -10 -4
-10 -6 0 -11 9 -11 20 0 25 -17 26 -23 3 -2 -10 -3 -6 -1 10 4 30 -10 36 -25
10 -10 -17 -10 -17 -11 -1 0 10 -10 20 -22 23 -35 8 -100 16 -127 17 -28 0
-46 -22 -28 -35 8 -6 6 -7 -5 -3 -39 12 -110 -37 -93 -65 7 -10 70 -7 82 4 12
12 22 7 17 -8 -4 -10 8 -21 41 -35 54 -23 134 -26 173 -6 31 16 97 24 108 13
10 -10 62 -9 68 2 3 4 -21 25 -53 44 -33 21 -58 43 -58 53 0 14 2 14 11 2 19
-25 45 -29 56 -8 6 11 22 23 35 26 34 8 31 21 -4 21 -20 0 -27 -5 -24 -13 4
-10 -5 -12 -34 -7 -47 7 -49 9 -33 28 7 9 10 18 6 22 -3 3 -6 1 -6 -5 0 -7 -5
-12 -11 -12 -5 0 -7 5 -4 10 8 12 4 12 -15 0z m26 -91 c3 -6 2 -15 -4 -21 -6
-6 -11 -2 -15 11 -5 22 7 29 19 10z"/>
<path d="M1883 3405 c-3 -9 -3 -18 -1 -21 3 -3 8 4 11 16 6 23 -1 27 -10 5z"/>
<path d="M1077 3341 c4 -26 0 -41 -11 -50 -9 -7 -16 -24 -16 -37 0 -12 -4 -25
-8 -28 -10 -6 -5 -127 5 -137 4 -4 20 -11 36 -14 30 -8 36 5 11 26 -13 10 -14
24 -9 68 4 31 13 63 21 72 16 18 19 55 4 64 -5 3 -10 19 -10 35 0 15 -6 30
-14 33 -11 4 -13 -3 -9 -32z"/>
<path d="M1983 3341 c-18 -16 -33 -25 -33 -20 0 6 -4 7 -10 4 -20 -12 -9 -21
27 -23 20 -2 42 -7 48 -12 12 -10 41 27 37 48 -5 23 18 12 24 -13 4 -16 0 -30
-10 -40 -23 -24 -20 -42 9 -49 14 -4 25 -11 25 -16 0 -6 5 -10 10 -10 17 0 11
28 -7 40 -16 9 -15 10 4 5 18 -5 22 -3 17 10 -5 13 1 11 30 -6 l37 -22 -20 37
c-11 20 -18 36 -14 36 3 0 -2 8 -11 19 -9 10 -34 21 -54 24 -20 3 -46 9 -57
12 -14 4 -30 -3 -52 -24z m156 -33 c0 -13 -3 -17 -6 -10 -2 6 -9 10 -14 6 -5
-3 -9 2 -9 10 0 9 7 16 15 16 9 0 15 -9 14 -22z"/>
<path d="M186 3034 c-8 -21 -3 -26 18 -18 18 7 17 25 -1 31 -6 2 -13 -4 -17
-13z"/>
<path d="M1280 3010 c-48 -12 -80 -60 -47 -73 6 -3 0 -6 -14 -6 -31 -1 -50
-41 -21 -41 11 0 13 -3 6 -8 -6 -4 -15 -18 -18 -32 -7 -23 -6 -22 11 5 11 17
22 37 25 47 4 10 23 19 50 23 24 4 65 13 92 21 65 18 116 18 116 0 0 -15 68
-28 76 -14 3 4 31 9 62 9 34 1 45 4 27 6 -16 3 -33 9 -36 15 -3 5 -62 11 -130
12 -133 4 -161 10 -152 32 6 15 4 16 -47 4z m-25 -40 c-3 -5 -11 -10 -16 -10
-6 0 -7 5 -4 10 3 6 11 10 16 10 6 0 7 -4 4 -10z"/>
<path d="M1375 3010 c-25 -6 -21 -8 25 -9 39 0 51 2 40 9 -17 11 -22 11 -65 0z"/>
<path d="M1533 3013 c-29 -10 -10 -23 35 -23 38 1 43 3 29 11 -10 6 -24 8 -32
5 -8 -3 -15 -1 -17 3 -2 4 -9 6 -15 4z"/>
<path d="M1693 2984 c-3 -7 -13 -14 -22 -15 -29 -1 21 -18 54 -18 26 0 27 2
10 9 -17 7 -16 9 9 9 35 1 30 8 -13 21 -25 7 -33 6 -38 -6z"/>
<path d="M1120 2975 c0 -18 27 -49 33 -38 2 5 3 17 3 28 -1 24 -36 34 -36 10z"/>
<path d="M1368 2923 c6 -2 18 -2 25 0 6 3 1 5 -13 5 -14 0 -19 -2 -12 -5z"/>
<path d="M944 2899 c-9 -16 2 -22 21 -11 15 8 16 10 1 15 -8 3 -18 2 -22 -4z"/>
<path d="M1531 2894 c0 -11 3 -14 6 -6 3 7 2 16 -1 19 -3 4 -6 -2 -5 -13z"/>
<path d="M900 2865 c-7 -8 -27 -17 -46 -21 -38 -7 -43 -18 -16 -33 14 -7 21
-5 30 10 7 10 19 19 27 19 8 0 19 9 25 20 12 23 -2 27 -20 5z"/>
<path d="M1466 2846 c8 -21 -20 -31 -43 -16 -16 10 -16 11 -1 6 10 -3 20 0 24
6 5 8 -3 9 -27 4 -19 -3 -36 -11 -37 -16 -2 -7 -23 -8 -53 -4 -37 5 -54 3 -67
-8 -9 -9 -33 -21 -52 -27 -59 -19 -65 -39 -57 -188 0 -7 10 -13 21 -13 17 0
18 -2 6 -10 -12 -8 -12 -10 5 -10 18 -1 17 -2 -5 -15 -23 -13 -23 -14 -5 -16
11 -1 28 -2 38 -1 9 1 45 -5 79 -13 l61 -14 32 35 c17 19 42 54 54 79 17 34
28 45 45 45 37 0 47 -21 42 -89 -3 -39 -1 -61 6 -61 6 0 8 9 5 21 -4 17 -3 18
9 8 8 -6 12 -20 9 -30 -5 -15 2 -19 42 -24 26 -3 57 -8 67 -10 11 -2 26 1 33
7 12 10 49 8 114 -8 21 -5 27 -2 32 16 4 15 11 20 24 16 26 -8 133 -16 133
-11 0 3 -15 14 -32 25 -39 24 -30 27 13 4 30 -15 31 -15 24 5 -5 17 -3 20 11
14 12 -4 15 -3 10 5 -4 8 0 12 11 12 10 0 26 9 36 20 16 19 16 21 -3 40 -11
11 -20 22 -20 23 0 7 -79 87 -86 87 -3 0 -26 14 -51 30 -24 17 -59 32 -76 35
-18 3 -50 9 -72 15 -22 5 -71 10 -110 10 -42 0 -81 6 -99 15 -28 15 -60 10
-35 -6 7 -4 11 -11 7 -14 -8 -9 -44 11 -40 22 2 4 -4 9 -12 11 -11 2 -14 -2
-10 -12z m24 -76 c0 -5 -5 -10 -11 -10 -5 0 -7 5 -4 10 3 6 8 10 11 10 2 0 4
-4 4 -10z m217 -256 c-3 -3 -12 -4 -19 -1 -8 3 -5 6 6 6 11 1 17 -2 13 -5z"/>
<path d="M951 2665 c0 -11 -8 -32 -15 -47 -8 -15 -11 -30 -7 -32 14 -9 33 39
28 70 -2 17 -5 20 -6 9z"/>
<path d="M3056 2490 c6 -72 18 -109 32 -96 4 4 -29 169 -35 176 -2 2 -1 -34 3
-80z"/>
<path d="M3378 2564 c-3 -5 -6 -44 -6 -86 -1 -70 1 -78 18 -78 17 0 18 6 13
73 -6 72 -16 107 -25 91z"/>
<path d="M1301 2470 c-8 -4 -19 -6 -26 -4 -6 3 -17 -6 -24 -19 -7 -12 -31 -31
-54 -41 -23 -10 -36 -21 -29 -23 17 -7 5 -23 -18 -23 -10 0 -21 8 -23 18 -3
10 -5 6 -6 -11 0 -16 2 -26 7 -24 4 3 5 -20 3 -51 -6 -96 12 -148 84 -242 35
-47 65 -91 65 -98 0 -7 5 -21 12 -31 7 -11 8 -26 3 -37 -5 -11 -9 -32 -10 -48
-1 -17 -6 -31 -12 -33 -6 -2 -9 -12 -8 -21 13 -66 17 -74 30 -68 9 3 15 -3 17
-17 3 -23 16 -18 -227 -104 -152 -54 -182 -75 -253 -182 -116 -173 -149 -311
-139 -581 8 -202 62 -500 117 -650 l21 -55 -6 145 c-4 80 -2 233 4 341 9 180
12 201 37 255 14 32 29 76 31 99 6 53 68 242 93 283 11 17 25 31 32 30 7 -2
15 14 18 39 4 24 22 65 42 95 20 29 41 63 47 75 6 12 21 23 33 25 13 2 24 12
28 26 5 22 41 54 133 118 20 15 37 35 37 45 0 29 27 23 35 -8 5 -21 12 -146
15 -250 0 -25 71 -91 120 -112 64 -27 208 -38 308 -22 95 15 247 64 347 111
88 42 189 110 164 110 -20 0 -53 35 -45 49 8 13 -9 56 -33 80 -11 11 -25 38
-31 59 -5 22 -17 43 -26 46 -8 3 -13 10 -10 14 3 4 1 25 -4 45 -4 21 -4 37 1
37 20 0 7 16 -22 27 -17 7 -33 21 -36 32 -8 32 -30 25 -79 -26 -34 -34 -48
-43 -54 -33 -9 14 -40 7 -40 -10 0 -6 5 -8 11 -4 7 4 10 1 7 -7 -3 -8 -13 -12
-24 -11 -10 2 -24 -4 -31 -14 -10 -14 -16 -15 -25 -6 -19 19 5 55 59 91 78 51
83 55 83 68 0 7 4 13 9 13 13 0 19 58 7 71 -8 9 -6 10 7 6 14 -5 17 -1 17 22
0 18 -6 31 -17 36 -17 6 -17 7 1 20 13 10 17 22 14 40 -3 14 -1 25 5 25 6 0 2
7 -9 16 -16 13 -16 15 -1 10 21 -7 22 2 0 26 -9 11 -11 18 -5 18 20 0 13 37
-12 66 -22 26 -24 27 -40 11 -16 -15 -19 -15 -32 -2 -9 8 -27 15 -40 15 -15 0
-24 5 -22 13 2 7 1 14 -2 15 -5 4 -55 -14 -73 -25 -6 -4 -8 0 -4 10 4 11 2 14
-9 10 -8 -3 -21 0 -29 7 -8 6 -19 9 -26 5 -6 -4 -14 -3 -18 3 -9 15 -122 50
-143 44 -12 -3 -18 -14 -18 -33 0 -26 -3 -29 -33 -29 -18 0 -38 5 -45 12 -14
14 -180 19 -188 6 -3 -4 -16 -8 -30 -8 -29 0 -32 24 -8 58 18 26 16 35 -5 22z
m-154 -187 c-3 -10 -5 -4 -5 12 0 17 2 24 5 18 2 -7 2 -21 0 -30z m883 27 c0
-5 -4 -10 -9 -10 -6 0 -13 5 -16 10 -3 6 1 10 9 10 9 0 16 -4 16 -10z m-110
-71 c9 -20 10 -33 3 -40 -7 -7 -14 3 -21 30 -12 48 0 55 18 10z m115 -29 c3
-5 1 -10 -4 -10 -6 0 -11 5 -11 10 0 6 2 10 4 10 3 0 8 -4 11 -10z m-685 -90
c0 -21 -25 -4 -28 20 -4 21 -2 22 12 7 9 -8 16 -21 16 -27z m-116 -6 c3 -8 2
-12 -4 -9 -6 3 -10 10 -10 16 0 14 7 11 14 -7z m410 -3 c10 -15 -47 -20 -61
-5 -12 12 -9 14 21 14 19 0 37 -4 40 -9z m61 -43 c-2 -22 -40 -44 -50 -28 -3
4 -19 2 -36 -7 -33 -16 -45 -13 -36 12 4 8 17 15 29 15 13 0 34 7 48 14 36 20
47 19 45 -6z m77 -62 c13 -19 9 -29 -7 -16 -13 11 -17 8 -26 -19 -8 -23 -15
-29 -22 -22 -17 17 -34 13 -57 -11 -11 -12 -23 -19 -26 -15 -9 8 23 57 37 57
6 0 20 11 31 25 20 26 54 27 70 1z m-424 -51 c9 -11 -9 -35 -26 -35 -16 0 -34
47 -27 71 l8 23 18 -25 c11 -13 23 -29 27 -34z m42 5 c0 -5 -4 -10 -9 -10 -6
0 -13 5 -16 10 -3 6 1 10 9 10 9 0 16 -4 16 -10z m170 -40 c0 -5 -5 -10 -11
-10 -5 0 -7 5 -4 10 3 6 8 10 11 10 2 0 4 -4 4 -10z m640 -330 c0 -5 -4 -10
-10 -10 -5 0 -10 5 -10 10 0 6 5 10 10 10 6 0 10 -4 10 -10z"/>
<path d="M1716 1995 c-3 -9 0 -15 9 -15 16 0 20 16 6 24 -5 3 -11 -1 -15 -9z"/>
<path d="M2544 2423 c-16 -21 -50 -63 -77 -93 -48 -54 -49 -56 -44 -108 4 -35
1 -65 -10 -90 -11 -26 -13 -52 -9 -93 4 -35 2 -66 -5 -81 -9 -20 -8 -32 5 -56
9 -17 16 -48 16 -70 0 -50 14 -62 71 -62 l46 0 -10 51 c-9 45 -8 53 12 80 l23
31 -22 59 c-18 48 -21 65 -12 84 6 14 14 75 17 137 3 62 9 122 12 133 4 11 5
33 4 48 -1 15 3 35 10 43 6 8 9 17 6 20 -3 3 -18 -12 -33 -33z"/>
<path d="M890 2430 c0 -5 5 -10 11 -10 5 0 7 5 4 10 -3 6 -8 10 -11 10 -2 0
-4 -4 -4 -10z"/>
<path d="M885 2390 c-3 -5 -1 -10 4 -10 6 0 11 5 11 10 0 6 -2 10 -4 10 -3 0
-8 -4 -11 -10z"/>
<path d="M2256 2310 c-10 -39 -16 -73 -13 -76 8 -8 47 47 48 70 5 84 -14 88
-35 6z"/>
<path d="M2317 2320 c6 -7 9 -19 6 -26 -3 -8 0 -14 7 -14 16 0 8 43 -10 48
-12 3 -12 2 -3 -8z"/>
<path d="M2350 2300 c0 -5 9 -10 21 -10 11 0 17 5 14 10 -3 6 -13 10 -21 10
-8 0 -14 -4 -14 -10z"/>
<path d="M3353 2220 c1 -14 -2 -72 -6 -130 -7 -85 -13 -112 -32 -142 -19 -28
-23 -44 -18 -74 l6 -37 23 28 c21 26 25 28 50 16 41 -18 48 -2 29 64 -16 54
-16 83 1 162 8 40 -3 103 -18 103 -6 0 -17 8 -24 18 -12 15 -13 15 -11 -8z"/>
<path d="M3061 2180 c-1 -3 -2 -55 -4 -116 -2 -72 -7 -117 -16 -127 -9 -12
-10 -21 -2 -36 16 -29 13 -119 -5 -180 -19 -64 -14 -81 25 -81 38 0 45 12 27
47 -11 22 -14 72 -12 233 1 113 -2 219 -5 235 -4 17 -7 28 -8 25z"/>
<path d="M770 2109 c0 -17 4 -28 10 -24 6 3 10 13 10 21 0 8 5 14 10 14 6 0
10 5 10 10 0 6 -9 10 -20 10 -16 0 -20 -7 -20 -31z"/>
<path d="M847 2098 c3 -24 7 -44 8 -46 5 -6 55 10 55 17 0 4 -11 13 -25 19
-15 7 -25 20 -25 32 0 11 -4 20 -9 20 -5 0 -7 -19 -4 -42z"/>
<path d="M651 2058 c0 -39 3 -48 9 -33 12 28 12 85 0 85 -5 0 -10 -24 -9 -52z"/>
<path d="M2108 2059 c-10 -10 -18 -26 -18 -36 0 -13 5 -11 23 8 21 22 31 50
18 48 -3 0 -14 -9 -23 -20z"/>
<path d="M2076 1981 c-4 -7 -5 -15 -2 -18 9 -9 19 4 14 18 -4 11 -6 11 -12 0z"/>
<path d="M3190 1904 c0 -8 5 -12 10 -9 6 3 10 10 10 16 0 5 -4 9 -10 9 -5 0
-10 -7 -10 -16z"/>
<path d="M3290 1738 c0 -8 -7 -29 -16 -47 -12 -24 -13 -36 -5 -44 18 -18 34 8
33 54 -2 39 -12 71 -12 37z"/>
<path d="M88 1683 c-48 -5 -41 -29 10 -37 47 -7 160 18 122 27 -43 10 -94 14
-132 10z"/>
<path d="M260 1670 c-13 -8 -12 -10 3 -10 9 0 17 5 17 10 0 12 -1 12 -20 0z"/>
<path d="M3363 1658 c-7 -13 -15 -33 -18 -45 -4 -13 -12 -23 -18 -23 -24 -1
56 -30 82 -30 15 0 37 -7 49 -16 24 -16 42 -12 42 12 0 9 -11 14 -30 14 -24 0
-31 5 -35 28 -9 38 -31 76 -47 80 -8 1 -19 -8 -25 -20z"/>
<path d="M2790 1640 c-22 -14 -32 -515 -12 -610 8 -39 11 -89 7 -123 -4 -37
-3 -57 3 -53 15 9 21 -26 37 -226 9 -100 22 -223 30 -273 8 -49 17 -150 21
-222 l7 -133 206 0 206 0 1 160 c0 88 -3 160 -7 160 -7 0 -16 100 -24 270 -2
47 -8 123 -14 170 -25 212 -42 377 -46 424 -9 131 -26 311 -30 314 -2 3 0 12
5 22 7 13 3 23 -16 41 -23 22 -35 24 -125 25 -80 0 -102 4 -112 17 -14 19 -77
47 -104 47 -10 0 -25 -5 -33 -10z"/>
<path d="M2439 1603 c-13 -16 -12 -17 4 -4 9 7 17 15 17 17 0 8 -8 3 -21 -13z"/>
<path d="M3466 1451 c-18 -19 -13 -28 14 -27 16 1 28 46 12 46 -5 0 -17 -9
-26 -19z"/>
<path d="M3411 1437 c2 -1 15 -11 29 -22 l25 -20 -19 23 c-11 12 -24 22 -29
22 -6 0 -8 -1 -6 -3z"/>
<path d="M1 1284 c0 -11 3 -14 6 -6 3 7 2 16 -1 19 -3 4 -6 -2 -5 -13z"/>
<path d="M1869 673 c-13 -16 -12 -17 4 -4 16 13 21 21 13 21 -2 0 -10 -8 -17
-17z"/>
<path d="M2280 583 c-17 -26 -30 -52 -30 -57 0 -6 12 9 26 34 14 25 30 51 36
57 6 7 8 13 4 13 -4 0 -20 -21 -36 -47z"/>
<path d="M1873 608 c-15 -20 -25 -38 -20 -38 3 0 12 11 21 25 17 26 16 35 -1
13z"/>
<path d="M2161 559 c-6 -18 -9 -34 -7 -36 2 -2 9 10 15 28 6 18 9 34 7 36 -2
2 -9 -10 -15 -28z"/>
<path d="M1794 555 c-3 -8 -4 -20 -2 -27 3 -7 7 -1 10 15 6 29 1 36 -8 12z"/>
<path d="M2365 540 c-9 -16 -13 -30 -11 -30 3 0 12 14 21 30 9 17 13 30 11 30
-3 0 -12 -13 -21 -30z"/>
<path d="M1821 531 c-12 -16 -21 -40 -21 -53 1 -18 4 -14 14 15 8 20 19 44 26
52 7 8 10 15 7 15 -3 0 -15 -13 -26 -29z"/>
<path d="M1702 479 c-15 -63 -8 -78 8 -19 6 23 14 48 17 56 3 8 1 14 -4 14 -5
0 -15 -23 -21 -51z"/>
<path d="M2236 495 c-9 -26 -7 -32 5 -12 6 10 9 21 6 23 -2 3 -7 -2 -11 -11z"/>
<path d="M2300 424 c-30 -53 -46 -74 -57 -70 -8 3 -21 6 -29 6 -11 0 -13 6 -8
23 15 48 14 51 -4 12 -24 -50 -38 -97 -23 -75 9 13 13 12 32 -6 20 -20 20 -23
5 -53 -21 -40 -37 -81 -31 -81 2 0 14 21 27 48 l22 47 4 -32 c2 -19 -5 -48
-18 -73 l-21 -41 -37 27 c-20 16 -43 36 -50 46 -18 25 -42 23 -42 -5 0 -33 26
-65 66 -82 19 -8 45 -26 59 -41 34 -37 54 -20 32 26 -17 33 -12 53 22 90 13
13 14 11 7 -13 -4 -17 -2 -27 5 -27 7 0 9 -9 5 -24 -16 -63 44 -123 127 -125
53 -1 59 9 21 36 -108 76 -119 90 -138 184 -7 37 25 99 52 99 15 0 15 2 2 10
-8 5 -24 10 -35 10 -12 0 -16 -3 -8 -8 8 -5 8 -13 -1 -30 -11 -20 -14 -21 -25
-9 -10 12 -2 33 39 111 28 53 49 96 46 96 -2 0 -23 -34 -46 -76z m-55 -85 c12
-18 -1 -20 -31 -4 l-29 15 27 0 c15 0 30 -5 33 -11z m49 -278 c-7 -7 -12 3
-19 34 l-6 30 14 -30 c8 -16 13 -32 11 -34z m26 29 c0 -5 -2 -10 -4 -10 -3 0
-8 5 -11 10 -3 6 -1 10 4 10 6 0 11 -4 11 -10z m100 -70 c0 -15 -5 -12 -26 11
-19 22 -19 22 4 10 12 -6 22 -16 22 -21z m-65 0 c3 -6 -1 -7 -9 -4 -18 7 -21
14 -7 14 6 0 13 -4 16 -10z"/>
<path d="M2370 405 c-29 -30 -52 -57 -49 -59 2 -2 28 22 57 55 29 32 52 59 50
59 -2 0 -28 -25 -58 -55z"/>
<path d="M1806 423 c-4 -9 -9 -13 -12 -10 -6 6 -72 -15 -109 -35 -14 -8 -20
-8 -23 1 -6 17 -19 13 -24 -7 -9 -31 -125 -102 -168 -102 -44 0 -117 -24 -141
-46 -14 -13 -22 -13 -40 -4 -31 17 -80 0 -170 -58 -63 -41 -159 -135 -159
-156 0 -11 36 -6 48 6 9 9 12 9 12 0 0 -7 5 -12 11 -12 5 0 8 4 5 9 -9 13 36
48 77 59 33 9 37 8 35 -6 -2 -9 -7 -20 -12 -23 -5 -4 -6 -14 -3 -22 5 -14 60
-16 448 -17 398 0 441 1 429 15 -11 13 -10 14 4 9 9 -3 16 -10 16 -15 0 -5 14
-9 31 -9 20 0 28 4 23 12 -4 6 1 17 11 25 22 15 12 17 -16 3 -17 -10 -32 2
-117 89 -72 74 -106 102 -130 107 -18 4 -35 11 -39 17 -4 6 0 8 10 4 22 -8 32
10 16 29 -17 21 -105 16 -133 -8 -16 -14 -17 -17 -3 -12 9 3 17 2 17 -4 0 -19
-58 -21 -114 -3 -53 16 -55 18 -34 29 13 7 38 24 57 37 26 19 37 22 47 14 13
-11 25 -10 69 6 16 5 17 5 5 -4 -24 -17 9 -14 40 4 14 8 35 14 47 15 12 0 34
5 50 12 27 12 26 12 -27 18 l-55 5 29 16 c22 12 25 17 13 22 -9 3 -18 -1 -21
-10z m-61 -223 c3 -5 -1 -10 -10 -10 -9 0 -13 5 -10 10 3 6 8 10 10 10 2 0 7
-4 10 -10z m-385 -15 c-7 -8 -17 -15 -22 -15 -6 0 -5 7 2 15 7 8 17 15 22 15
6 0 5 -7 -2 -15z m60 11 c0 -2 -8 -10 -17 -17 -16 -13 -17 -12 -4 4 13 16 21
21 21 13z m-130 -26 c-35 -24 -52 -32 -46 -21 4 6 0 11 -11 12 -16 0 -16 1 2
9 11 5 31 9 45 9 20 1 22 -1 10 -9z m-98 -22 c-11 -13 -36 -32 -54 -42 -29
-17 -28 -14 12 22 48 44 78 58 42 20z m158 4 c0 -13 -48 -33 -55 -22 -4 6 15
17 53 29 1 1 2 -3 2 -7z m60 -72 c0 -5 -5 -10 -11 -10 -5 0 -7 5 -4 10 3 6 8
10 11 10 2 0 4 -4 4 -10z m18 -34 c-10 -7 -18 -18 -18 -25 0 -6 -4 -11 -10
-11 -19 0 -10 31 13 40 31 12 35 11 15 -4z"/>
<path d="M1851 436 c2 -2 36 -6 74 -8 40 -3 61 -2 50 3 -19 7 -132 13 -124 5z"/>
<path d="M1982 405 c-43 -24 -47 -33 -18 -45 15 -5 45 -10 66 -10 42 0 59 -17
61 -62 1 -16 3 -18 6 -6 4 16 6 16 29 1 18 -12 28 -13 36 -5 8 8 4 20 -15 45
-14 19 -24 37 -21 39 4 5 -109 59 -117 57 -2 -1 -15 -7 -27 -14z"/>
<path d="M3291 368 c-1 -16 4 -28 9 -28 12 0 12 8 0 35 -8 18 -9 17 -9 -7z"/>
<path d="M1858 333 c-22 -6 -24 -39 -2 -47 8 -3 13 -10 10 -15 -3 -5 16 -8 42
-7 43 1 48 -2 62 -29 33 -65 38 -71 50 -59 7 7 12 28 13 48 1 28 -6 44 -33 71
-19 20 -40 33 -47 31 -7 -3 -13 -2 -13 3 0 8 -54 11 -82 4z"/>
<path d="M2445 324 c-19 -10 -43 -14 -65 -10 -28 4 -31 3 -16 -6 10 -5 33 -8
52 -5 18 3 36 1 40 -4 3 -5 9 -7 14 -4 5 3 11 1 15 -5 3 -5 17 -10 30 -10 13
0 27 -5 30 -11 4 -6 13 -8 20 -5 27 10 23 -8 -10 -49 -19 -23 -35 -51 -35 -62
0 -11 -6 -26 -14 -32 -15 -13 -28 -61 -15 -61 4 0 20 5 35 10 25 10 31 7 71
-32 24 -23 43 -37 43 -31 0 6 -16 25 -37 42 -28 23 -34 33 -25 43 6 8 18 36
27 63 10 28 29 68 44 90 35 53 47 75 25 50 -14 -17 -16 -17 -11 -2 14 39 0 46
-96 46 -65 0 -101 -4 -122 -15z m164 -84 c-13 -16 -25 -28 -27 -25 -5 5 37 55
45 55 2 0 -6 -13 -18 -30z m-89 -141 c-7 -11 -14 -18 -17 -15 -3 3 0 12 7 21
18 21 23 19 10 -6z m30 -3 c0 -3 -4 -8 -10 -11 -5 -3 -10 -1 -10 4 0 6 5 11
10 11 6 0 10 -2 10 -4z"/>
<path d="M1102 36 c2 -8 -1 -14 -7 -13 -5 1 -9 5 -7 10 4 12 -8 8 -24 -7 -21
-22 -17 -26 26 -26 37 0 40 2 31 19 -6 10 -7 21 -4 25 3 3 1 6 -6 6 -6 0 -11
-6 -9 -14z"/>
<path d="M600 10 c0 -5 21 -10 48 -9 38 1 42 2 22 9 -36 12 -70 12 -70 0z"/>
</g>
</svg>
