<svg width="143" height="21" viewBox="0 0 143 21" fill="none" xmlns="http://www.w3.org/2000/svg">
<path fill-rule="evenodd" clip-rule="evenodd" d="M18 0H2C0.89543 0 0 0.940202 0 2.1V18.9C0 20.0598 0.89543 21 2 21L10 21V13.0941H7V10.1294H10V8.53737C10 5.52325 11.4897 4.20001 13.925 4.20001C15.0684 4.20001 15.6836 4.2855 15.9825 4.32703L16 4.32946V7.16471H14.339C13.3053 7.16471 13 7.72603 13 8.8625V10.1294H15.9741L15.5629 13.0941H13V21L18 21C19.1046 21 20 20.0598 20 18.9V2.1C20 0.940202 19.1046 0 18 0Z" fill="#262626"/>
<path fill-rule="evenodd" clip-rule="evenodd" d="M59 0.0558472H43C41.8954 0.0558472 41 0.993554 41 2.15027V18.9057C41 20.0624 41.8954 21.0001 43 21.0001H59C60.1046 21.0001 61 20.0624 61 18.9057V2.15027C61 0.993554 60.1046 0.0558472 59 0.0558472ZM45 4.83525C45 5.73946 45.7003 6.47408 46.5664 6.47408C47.4297 6.47408 48.1318 5.73946 48.1318 4.83525C48.1318 3.93198 47.4297 3.19736 46.5664 3.19736C45.7012 3.19736 45 3.93103 45 4.83525ZM45.2505 16.8111H47.937V7.76703H45.2505V16.8111ZM58.0001 16.8111H55.3154V12.4129C55.3154 11.3639 55.2972 10.0147 53.9193 10.0147C52.5214 10.0147 52.3065 11.1571 52.3065 12.3367V16.8111H49.6218V7.76703H52.1991V9.00282H52.2355C52.5943 8.29203 53.4704 7.54216 54.7772 7.54216C57.4974 7.54216 58.0001 9.41539 58.0001 11.8508V16.8111Z" fill="#262626"/>
<path fill-rule="evenodd" clip-rule="evenodd" d="M100 0.0558472H84C82.8954 0.0558472 82 0.993554 82 2.15027V18.9057C82 20.0624 82.8954 21.0001 84 21.0001H100C101.105 21.0001 102 20.0624 102 18.9057V2.15027C102 0.993554 101.105 0.0558472 100 0.0558472ZM97.3502 6.58962C97.9312 6.51929 98.4847 6.36336 99 6.13166C98.615 6.71447 98.1277 7.2264 97.5661 7.63693C97.5715 7.76178 97.5742 7.88717 97.5742 8.01311C97.5742 11.8562 94.686 16.2875 89.4028 16.2875C87.7805 16.2875 86.2713 15.8061 85 14.9812C85.2251 15.0085 85.4539 15.0221 85.6854 15.0221C87.0315 15.0221 88.27 14.557 89.2526 13.7769C87.9959 13.7534 86.9352 12.9122 86.5696 11.7569C86.7445 11.7902 86.9249 11.8087 87.1096 11.8087C87.3718 11.8087 87.626 11.7733 87.8667 11.7068C86.5523 11.4402 85.5627 10.2648 85.5627 8.85543V8.81891C85.9498 9.03644 86.3929 9.16728 86.8635 9.18255C86.093 8.66135 85.5864 7.77105 85.5864 6.76244C85.5864 6.2287 85.728 5.72931 85.9746 5.2997C87.3918 7.05957 89.5078 8.21756 91.8947 8.33859C91.8463 8.12651 91.8204 7.90408 91.8204 7.67619C91.8204 6.0706 93.1062 4.76814 94.6925 4.76814C95.5184 4.76814 96.2647 5.12142 96.7886 5.68678C97.4434 5.55594 98.0583 5.31387 98.6129 4.98076C98.3986 5.66007 97.9436 6.22979 97.3502 6.58962Z" fill="#262626"/>
<path fill-rule="evenodd" clip-rule="evenodd" d="M129 0.0558472H137C140.314 0.0558472 143 2.86897 143 6.33913V14.7168C143 18.187 140.314 21.0001 137 21.0001H129C125.686 21.0001 123 18.187 123 14.7168V6.33913C123 2.86897 125.686 0.0558472 129 0.0558472ZM139 3.19736C139.5 3.19736 140 3.72097 140 4.24458C140 4.76818 139.5 5.29179 139 5.29179C138.5 5.29179 138 4.76818 138 4.24458C138 3.72097 138.5 3.19736 139 3.19736ZM138 10.5278C138 7.64014 135.757 5.29177 133 5.29177C130.243 5.29177 128 7.64014 128 10.5278C128 13.4155 130.243 15.7639 133 15.7639C135.757 15.7639 138 13.4155 138 10.5278ZM133 7.38617C131.343 7.38617 130 8.79273 130 10.5278C130 12.2629 131.343 13.6694 133 13.6694C134.657 13.6694 136 12.2629 136 10.5278C136 8.79273 134.657 7.38617 133 7.38617Z" fill="#262626"/>
</svg>
